<mxfile host="app.diagrams.net">
  <diagram name="Diagrama de Componentes" id="component-diagram">
    <mxGraphModel dx="1428" dy="711" grid="1" gridSize="10" guides="1" tooltips="1" connect="1" arrows="1" fold="1" page="1" pageScale="1" pageWidth="827" pageHeight="1169" math="0" shadow="0">
      <root>
        <mxCell id="0"/>
        <mxCell id="1" parent="0"/>
        <!-- Docker Container -->
        <mxCell id="2" value="&lt;&lt;Container&gt;&gt;&#xa;Docker: service-api" style="swimlane;fillColor=#e1f5fe;strokeColor=#2196f3;rounded=1;" vertex="1" parent="1">
          <mxGeometry x="40" y="160" width="220" height="140" as="geometry"/>
        </mxCell>
        <mxCell id="3" value="&lt;&lt;Component&gt;&gt;&#xa;API Service" style="component;fillColor=#fffde7;strokeColor=#fbc02d;" vertex="1" parent="2">
          <mxGeometry x="20" y="30" width="120" height="60" as="geometry"/>
        </mxCell>
        <!-- Gateway -->
        <mxCell id="4" value="&lt;&lt;Component&gt;&gt;&#xa;API Gateway" style="component;fillColor=#e8f5e9;strokeColor=#388e3c;" vertex="1" parent="1">
          <mxGeometry x="310" y="60" width="120" height="60" as="geometry"/>
        </mxCell>
        <!-- Docker Container 2 -->
        <mxCell id="5" value="&lt;&lt;Container&gt;&gt;&#xa;Docker: service-worker" style="swimlane;fillColor=#e1f5fe;strokeColor=#2196f3;rounded=1;" vertex="1" parent="1">
          <mxGeometry x="310" y="160" width="220" height="140" as="geometry"/>
        </mxCell>
        <mxCell id="6" value="&lt;&lt;Component&gt;&gt;&#xa;Worker Service" style="component;fillColor=#fffde7;strokeColor=#fbc02d;" vertex="1" parent="5">
          <mxGeometry x="20" y="30" width="120" height="60" as="geometry"/>
        </mxCell>
        <!-- Database -->
        <mxCell id="7" value="&lt;&lt;Database&gt;&gt;&#xa;PostgreSQL" style="shape=database;whiteSpace=wrap;html=1;fillColor=#ede7f6;strokeColor=#512da8;" vertex="1" parent="1">
          <mxGeometry x="600" y="180" width="100" height="80" as="geometry"/>
        </mxCell>
        <!-- Connections -->
        <mxCell id="8" style="edgeStyle=orthogonalEdgeStyle;endArrow=block;html=1;strokeColor=#2196f3;" edge="1" parent="1" source="3" target="4">
          <mxGeometry relative="1" as="geometry"/>
        </mxCell>
        <mxCell id="9" style="edgeStyle=orthogonalEdgeStyle;endArrow=block;html=1;strokeColor=#2196f3;" edge="1" parent="1" source="4" target="3">
          <mxGeometry relative="1" as="geometry"/>
        </mxCell>
        <mxCell id="10" style="edgeStyle=orthogonalEdgeStyle;endArrow=block;html=1;strokeColor=#512da8;" edge="1" parent="1" source="3" target="7">
          <mxGeometry relative="1" as="geometry"/>
        </mxCell>
        <mxCell id="11" style="edgeStyle=orthogonalEdgeStyle;endArrow=block;html=1;strokeColor=#512da8;" edge="1" parent="1" source="6" target="7">
          <mxGeometry relative="1" as="geometry"/>
        </mxCell>
      </root>
    </mxGraphModel>
  </diagram>
  <diagram name="Diagrama de Implantação" id="deployment-diagram">
    <mxGraphModel dx="1428" dy="711" grid="1" gridSize="10" guides="1" tooltips="1" connect="1" arrows="1" fold="1" page="1" pageScale="1" pageWidth="827" pageHeight="1169" math="0" shadow="0">
      <root>
        <mxCell id="0"/>
        <mxCell id="1" parent="0"/>
        <!-- Node/Server -->
        <mxCell id="20" value="&lt;&lt;Node&gt;&gt;&#xa;Servidor Físico/VM" style="swimlane;fillColor=#fce4ec;strokeColor=#d81b60;rounded=1;" vertex="1" parent="1">
          <mxGeometry x="30" y="80" width="600" height="300" as="geometry"/>
        </mxCell>
        <!-- Docker Host -->
        <mxCell id="21" value="&lt;&lt;Environment&gt;&gt;&#xa;Docker Engine" style="swimlane;fillColor=#e1f5fe;strokeColor=#2196f3;rounded=1;" vertex="1" parent="20">
          <mxGeometry x="30" y="40" width="370" height="200" as="geometry"/>
        </mxCell>
        <!-- API Container -->
        <mxCell id="22" value="service-api (Container Docker)" style="rounded=1;fillColor=#fffde7;strokeColor=#fbc02d;" vertex="1" parent="21">
          <mxGeometry x="20" y="30" width="120" height="60" as="geometry"/>
        </mxCell>
        <!-- Worker Container -->
        <mxCell id="23" value="service-worker (Container Docker)" style="rounded=1;fillColor=#fffde7;strokeColor=#fbc02d;" vertex="1" parent="21">
          <mxGeometry x="170" y="30" width="120" height="60" as="geometry"/>
        </mxCell>
        <!-- API Gateway (externo) -->
        <mxCell id="24" value="API Gateway" style="rounded=1;fillColor=#e8f5e9;strokeColor=#388e3c;" vertex="1" parent="1">
          <mxGeometry x="450" y="30" width="120" height="60" as="geometry"/>
        </mxCell>
        <!-- Database (externo) -->
        <mxCell id="25" value="PostgreSQL (DBaaS / Externo)" style="shape=database;whiteSpace=wrap;html=1;fillColor=#ede7f6;strokeColor=#512da8;" vertex="1" parent="1">
          <mxGeometry x="480" y="220" width="110" height="80" as="geometry"/>
        </mxCell>
        <!-- Connections -->
        <mxCell id="26" style="edgeStyle=orthogonalEdgeStyle;endArrow=block;html=1;strokeColor=#388e3c;" edge="1" parent="1" source="24" target="22">
          <mxGeometry relative="1" as="geometry"/>
        </mxCell>
        <mxCell id="27" style="edgeStyle=orthogonalEdgeStyle;endArrow=block;html=1;strokeColor=#512da8;" edge="1" parent="1" source="22" target="25">
          <mxGeometry relative="1" as="geometry"/>
        </mxCell>
        <mxCell id="28" style="edgeStyle=orthogonalEdgeStyle;endArrow=block;html=1;strokeColor=#512da8;" edge="1" parent="1" source="23" target="25">
          <mxGeometry relative="1" as="geometry"/>
        </mxCell>
      </root>
    </mxGraphModel>
  </diagram>
</mxfile>
